<svg width="16" height="17" viewBox="0 0 16 17" fill="none" xmlns="http://www.w3.org/2000/svg">
<mask id="mask0_1202_11496" style="mask-type:alpha" maskUnits="userSpaceOnUse" x="2" y="4" width="12" height="9">
<path d="M5.86337 10.8475L3.55004 8.53417C3.42548 8.40933 3.25638 8.33918 3.08004 8.33918C2.90369 8.33918 2.73459 8.40933 2.61004 8.53417C2.35004 8.79417 2.35004 9.21417 2.61004 9.47417L5.39671 12.2608C5.65671 12.5208 6.07671 12.5208 6.33671 12.2608L13.39 5.2075C13.65 4.9475 13.65 4.5275 13.39 4.2675C13.2655 4.14267 13.0964 4.07251 12.92 4.07251C12.7437 4.07251 12.5746 4.14267 12.45 4.2675L5.86337 10.8475Z" fill="black"/>
</mask>
<g mask="url(#mask0_1202_11496)">
<rect y="0.26416" width="16" height="16" fill="white"/>
</g>
</svg>
