<svg width="24" height="25" viewBox="0 0 24 25" fill="none" xmlns="http://www.w3.org/2000/svg">
<g id="Navigation / close">
<mask id="mask0_70_10377" style="mask-type:alpha" maskUnits="userSpaceOnUse" x="5" y="5" width="14" height="14">
<g id="Icon Mask">
<path id="Round" d="M18.3 5.98803C18.1131 5.80078 17.8595 5.69555 17.595 5.69555C17.3305 5.69555 17.0768 5.80078 16.89 5.98803L12 10.868L7.10997 5.97803C6.92314 5.79078 6.66949 5.68555 6.40497 5.68555C6.14045 5.68555 5.8868 5.79078 5.69997 5.97803C5.30997 6.36803 5.30997 6.99803 5.69997 7.38803L10.59 12.278L5.69997 17.168C5.30997 17.558 5.30997 18.188 5.69997 18.578C6.08997 18.968 6.71997 18.968 7.10997 18.578L12 13.688L16.89 18.578C17.28 18.968 17.91 18.968 18.3 18.578C18.69 18.188 18.69 17.558 18.3 17.168L13.41 12.278L18.3 7.38803C18.68 7.00803 18.68 6.36803 18.3 5.98803Z" fill="black"/>
</g>
</mask>
<g mask="url(#mask0_70_10377)">
<rect id="Color Fill" y="0.277344" width="24" height="24" fill="black"/>
</g>
</g>
</svg>
