<svg width="12" height="12" viewBox="0 0 12 12" fill="none" xmlns="http://www.w3.org/2000/svg">
<path d="M0 6C0 2.68629 2.68629 0 6 0C9.31371 0 12 2.68629 12 6C12 9.31371 9.31371 12 6 12C2.68629 12 0 9.31371 0 6Z" fill="#EC6041"/>
<mask id="mask0_203_34123" style="mask-type:alpha" maskUnits="userSpaceOnUse" x="2" y="2" width="8" height="7">
<path fill-rule="evenodd" clip-rule="evenodd" d="M8.90284 3.87652C9.03284 4.00652 9.03284 4.21652 8.90284 4.34652L8.29284 4.95652L7.04284 3.70652L7.65284 3.09652C7.71512 3.0341 7.79967 2.99902 7.88784 2.99902C7.97601 2.99902 8.06056 3.0341 8.12284 3.09652L8.90284 3.87652ZM2.99951 8.83325V7.81992C2.99951 7.77325 3.01618 7.73325 3.04951 7.69992L6.68618 4.06325L7.93618 5.31325L4.29618 8.94992C4.26618 8.98325 4.22284 8.99992 4.17951 8.99992H3.16618C3.07285 8.99992 2.99951 8.92659 2.99951 8.83325Z" fill="black"/>
</mask>
<g mask="url(#mask0_203_34123)">
<rect x="2" y="2" width="8" height="8" fill="white"/>
</g>
</svg>
