<svg width="28" height="28" viewBox="0 0 28 28" fill="none" xmlns="http://www.w3.org/2000/svg">
<mask id="mask0_1241_1469" style="mask-type:alpha" maskUnits="userSpaceOnUse" x="5" y="5" width="18" height="18">
<path d="M21 15.1663H15.1666V20.9997C15.1666 21.6413 14.6416 22.1663 14 22.1663C13.3583 22.1663 12.8333 21.6413 12.8333 20.9997V15.1663H6.99998C6.35831 15.1663 5.83331 14.6413 5.83331 13.9997C5.83331 13.358 6.35831 12.833 6.99998 12.833H12.8333V6.99967C12.8333 6.35801 13.3583 5.83301 14 5.83301C14.6416 5.83301 15.1666 6.35801 15.1666 6.99967V12.833H21C21.6416 12.833 22.1666 13.358 22.1666 13.9997C22.1666 14.6413 21.6416 15.1663 21 15.1663Z" fill="black"/>
</mask>
<g mask="url(#mask0_1241_1469)">
<rect width="28" height="28" fill="black"/>
</g>
</svg>
