<svg width="10" height="10" viewBox="0 0 10 10" fill="none" xmlns="http://www.w3.org/2000/svg">
<mask id="mask0_1105_15319" style="mask-type:alpha" maskUnits="userSpaceOnUse" x="1" y="1" width="8" height="8">
<path fill-rule="evenodd" clip-rule="evenodd" d="M2.39606 8.32891H7.802C8.22675 8.32891 8.57427 7.98139 8.57427 7.55664V2.1507C8.57427 1.72594 8.22675 1.37842 7.802 1.37842H2.39606C1.9713 1.37842 1.62378 1.72594 1.62378 2.1507V7.55664C1.62378 7.98139 1.9713 8.32891 2.39606 8.32891ZM5.87129 3.88822H7.0297C7.24208 3.88822 7.41584 3.71446 7.41584 3.50208C7.41584 3.28971 7.24208 3.11595 7.0297 3.11595H5.87129C5.65891 3.11595 5.48515 3.28971 5.48515 3.50208C5.48515 3.71446 5.65891 3.88822 5.87129 3.88822ZM5.87129 6.59119H7.0297C7.24208 6.59119 7.41584 6.41743 7.41584 6.20505C7.41584 5.99268 7.24208 5.81892 7.0297 5.81892H5.87129C5.65891 5.81892 5.48515 5.99268 5.48515 6.20505C5.48515 6.41743 5.65891 6.59119 5.87129 6.59119ZM3.16832 4.46743H4.32673C4.53911 4.46743 4.71287 4.29367 4.71287 4.08129V2.92288C4.71287 2.7105 4.53911 2.53674 4.32673 2.53674H3.16832C2.95594 2.53674 2.78218 2.7105 2.78218 2.92288V4.08129C2.78218 4.29367 2.95594 4.46743 3.16832 4.46743ZM4.32673 2.92288H3.16832V4.08129H4.32673V2.92288ZM3.16832 7.1704H4.32673C4.53911 7.1704 4.71287 6.99664 4.71287 6.78426V5.62585C4.71287 5.41347 4.53911 5.23971 4.32673 5.23971H3.16832C2.95594 5.23971 2.78218 5.41347 2.78218 5.62585V6.78426C2.78218 6.99664 2.95594 7.1704 3.16832 7.1704ZM4.32673 5.62585H3.16832V6.78426H4.32673V5.62585Z" fill="black"/>
</mask>
<g mask="url(#mask0_1105_15319)">
<rect x="0.465332" y="0.219971" width="9.26733" height="9.26733" fill="#AEAEAE"/>
</g>
</svg>
