<svg width="24" height="25" viewBox="0 0 24 25" fill="none" xmlns="http://www.w3.org/2000/svg">
<g id="Social / share">
<mask id="mask0_1385_85" style="mask-type:alpha" maskUnits="userSpaceOnUse" x="3" y="2" width="18" height="21">
<g id="Icon Mask">
<path id="Round" d="M18 16.3812C17.24 16.3812 16.56 16.6812 16.04 17.1512L8.91 13.0012C8.96 12.7712 9 12.5412 9 12.3012C9 12.0612 8.96 11.8312 8.91 11.6012L15.96 7.49121C16.5 7.99121 17.21 8.30121 18 8.30121C19.66 8.30121 21 6.96121 21 5.30121C21 3.64121 19.66 2.30121 18 2.30121C16.34 2.30121 15 3.64121 15 5.30121C15 5.54121 15.04 5.77121 15.09 6.00121L8.04 10.1112C7.5 9.61121 6.79 9.30121 6 9.30121C4.34 9.30121 3 10.6412 3 12.3012C3 13.9612 4.34 15.3012 6 15.3012C6.79 15.3012 7.5 14.9912 8.04 14.4912L15.16 18.6512C15.11 18.8612 15.08 19.0812 15.08 19.3012C15.08 20.9112 16.39 22.2212 18 22.2212C19.61 22.2212 20.92 20.9112 20.92 19.3012C20.92 17.6912 19.61 16.3812 18 16.3812Z" fill="black"/>
</g>
</mask>
<g mask="url(#mask0_1385_85)">
<rect id="Color Fill" y="0.26123" width="24" height="24" fill="#AEAEAE"/>
</g>
</g>
</svg>
