<svg width="10" height="10" viewBox="0 0 10 10" fill="none" xmlns="http://www.w3.org/2000/svg">
<mask id="mask0_1105_15293" style="mask-type:alpha" maskUnits="userSpaceOnUse" x="1" y="1" width="8" height="8">
<path fill-rule="evenodd" clip-rule="evenodd" d="M5.09906 2.30118C5.77867 1.50573 7.03748 1.18138 8.05688 1.87643C8.59748 2.24712 8.93728 2.87266 8.96045 3.5291C9.01065 5.02732 7.68619 6.22821 5.65896 8.06623L5.61649 8.10484C5.32302 8.37514 4.87124 8.37514 4.57777 8.1087L4.53916 8.07395L4.51584 8.05276C2.50175 6.22284 1.18382 5.02543 1.23767 3.53296C1.26084 2.87266 1.60065 2.24712 2.14124 1.87643C3.16065 1.17752 4.41946 1.50573 5.09906 2.30118ZM5.09911 7.53725L5.13772 7.49864C6.97574 5.83438 8.18821 4.73389 8.18821 3.61795C8.18821 2.84567 7.60901 2.26646 6.83673 2.26646C6.24208 2.26646 5.66287 2.64874 5.46208 3.17775H4.74C4.53534 2.64874 3.95614 2.26646 3.36148 2.26646C2.5892 2.26646 2.01 2.84567 2.01 3.61795C2.01 4.73389 3.22247 5.83438 5.06049 7.49864L5.09911 7.53725Z" fill="black"/>
</mask>
<g mask="url(#mask0_1105_15293)">
<rect x="0.465332" y="0.267334" width="9.26733" height="9.26733" fill="#AEAEAE"/>
</g>
</svg>
